{"title":"1984 - The Neverending Story","uid":12572172,"size":2287257389,"categoryP":"video","categoryS":"hd___movies","magnet":"?xt=urn:btih:5627ba48e3c35b1da0c389d82d3040b6347d7caf&amp;dn=1984+-+The+Neverending+Story&amp;tr=udp%3A%2F%2Ftracker.leechers-paradise.org%3A6969&amp;tr=udp%3A%2F%2Fzer0day.ch%3A1337&amp;tr=udp%3A%2F%2Fopen.demonii.com%3A1337&amp;tr=udp%3A%2F%2Ftracker.coppersurfer.tk%3A6969&amp;tr=udp%3A%2F%2Fexodus.desync.com%3A6969","seeders":0,"leechers":1,"uploader":"bnaron","files":3,"time":1444857212,"description":"1984 - The Neverending Story\r\n\r\n\r\nWhile hiding from bullies in his school's attic, a young boy discovers the extraordinary land of Fantasia, through a magical book called The Neverending Story. The book tells the tale of Atreyu, a young warrior who, with the help of a luck dragon named Falkor, must save Fantasia from the destruction of The Nothing.\r\n\r\n\r\nVideo\r\nID                          : 1\r\nFormat                      : AVC\r\nFormat/Info                 : Advanced Video Codec\r\nFormat profile              :   \r\nFormat settings, CABAC      : Yes\r\nFormat settings, ReFrames   : 1 frame\r\nFormat settings, GOP        : M=3, N=24\r\nMuxing mode                 : Container   \r\nCodec ID                    : avc1\r\nCodec ID/Info               : Advanced Video Coding\r\nDuration                    : 1h 34mn\r\nBit rate mode               : Variable\r\nBit rate                    : 3,044 Kbps\r\nMaximum bit rate            : 4,500 Kbps\r\nWidth                       : 1,280 pixels\r\nHeight                      : 720 pixels\r\nDisplay aspect ratio        : 16:9\r\nFrame rate mode             : Constant\r\nFrame rate                  : 29.970 fps\r\nColor space                 : YUV\r\nChroma subsampling          : 4:2:0\r\nBit depth                   : 8 bits\r\nScan type                   : Progressive\r\nBits/(Pixel*Frame)          : 0.110\r\nStream size                 : 2.00 GiB (94%)\r\nLanguage                    : English\r\n\r\nAudio\r\nID                          : 2\r\nFormat                      : AAC\r\nFormat/Info                 : Advanced Audio Codec\r\nFormat profile              : LC\r\nCodec ID                    : 40\r\nDuration                    : 1h 34mn\r\nBit rate mode               : Constant\r\nBit rate                    : 192 Kbps\r\nChannel(s)                  : 2 channels\r\nChannel positions           : Front: L R\r\nSampling rate               : 44.1 KHz\r\nCompression mode            : Lossy\r\nStream size                 : 129 MiB (6%)\r\nTitle                       : Stereo\r\nLanguage                    : English","torrent":{"xt":"urn:btih:5627ba48e3c35b1da0c389d82d3040b6347d7caf","amp;dn":"1984+-+The+Neverending+Story","amp;tr":["udp%3A%2F%2Ftracker.leechers-paradise.org%3A6969","udp%3A%2F%2Fzer0day.ch%3A1337","udp%3A%2F%2Fopen.demonii.com%3A1337","udp%3A%2F%2Ftracker.coppersurfer.tk%3A6969","udp%3A%2F%2Fexodus.desync.com%3A6969"],"infoHash":"5627ba48e3c35b1da0c389d82d3040b6347d7caf","infoHashBuffer":{"type":"Buffer","data":[86,39,186,72,227,195,91,29,160,195,137,216,45,48,64,182,52,125,124,175]},"announce":[],"urlList":[]}}